<?xml version="1.0" encoding="utf-8"?>
<!-- Generator: Adobe Illustrator 24.1.0, SVG Export Plug-In . SVG Version: 6.00 Build 0)  -->
<svg version="1.1" id="Layer_1" xmlns="http://www.w3.org/2000/svg" xmlns:xlink="http://www.w3.org/1999/xlink" x="0px" y="0px"
	 viewBox="0 0 504 360" style="enable-background:new 0 0 504 360;" xml:space="preserve">
<style type="text/css">
	.st0{fill:#ED1C24;}
	.st1{enable-background:new    ;}
	.st2{font-family:'MyriadPro-Regular';}
	.st3{font-size:12px;}
	.st4{fill:none;stroke:#000000;stroke-width:2;stroke-miterlimit:10;}
	.st5{fill:#00A651;}
	.st6{fill:none;stroke:#000000;stroke-miterlimit:10;}
</style>
<path class="st0" d="M452.1,127.6H288.7V29.3h163.4V127.6z M289.7,126.6h161.4V30.3H289.7V126.6z"/>
<text transform="matrix(1 0 0 1 66.2295 112.6602)" class="st1"><tspan x="0" y="0" class="st2 st3">USER</tspan><tspan x="0" y="14.4" class="st2 st3">-id: integer</tspan><tspan x="0" y="28.8" class="st2 st3">-name: string</tspan><tspan x="0" y="43.2" class="st2 st3">-username: string</tspan><tspan x="0" y="57.6" class="st2 st3">-email: email</tspan></text>
<text transform="matrix(1 0 0 1 314.9551 47.0063)" class="st1"><tspan x="0" y="0" class="st0 st2 st3">POST</tspan><tspan x="0" y="14.4" class="st0 st2 st3">-id: integer</tspan><tspan x="0" y="28.8" class="st0 st2 st3">-title: string</tspan><tspan x="0" y="43.2" class="st0 st2 st3">-body: string</tspan><tspan x="0" y="57.6" class="st2 st3">-user: integer</tspan></text>
<line class="st4" x1="202.1" y1="75.7" x2="289.2" y2="75.7"/>
<line class="st4" x1="367.5" y1="127.1" x2="367.5" y2="207"/>
<line class="st4" x1="352.9" y1="207" x2="367.5" y2="194.8"/>
<line class="st4" x1="379.9" y1="207" x2="367.5" y2="194.8"/>
<path class="st5" d="M453.4,307.1H290V206.5h163.4V307.1z M291,306.1h161.4v-98.7H291V306.1z"/>
<text transform="matrix(1 0 0 1 314.096 222.8915)" class="st1"><tspan x="0" y="0" class="st5 st2 st3">COMMENT</tspan><tspan x="0" y="14.4" class="st5 st2 st3">-id: integer</tspan><tspan x="0" y="28.8" class="st5 st2 st3">-title: string</tspan><tspan x="0" y="43.2" class="st5 st2 st3">-body: string</tspan><tspan x="0" y="57.6" class="st0 st2 st3">-user: integer</tspan><tspan x="0" y="72" class="st5 st2 st3">-post: integer</tspan></text>
<line class="st4" x1="202.1" y1="254" x2="290" y2="254"/>
<line class="st4" x1="270.1" y1="254" x2="291" y2="240.6"/>
<line class="st4" x1="290" y1="269.3" x2="270.1" y2="254"/>
<rect x="51" y="37.3" class="st6" width="151.1" height="245.1"/>
<line class="st4" x1="268.3" y1="76.3" x2="289.2" y2="62.9"/>
<line class="st4" x1="288.2" y1="91.6" x2="268.3" y2="76.3"/>
</svg>
