<?xml version="1.0" encoding="utf-8"?>
<!-- Generator: Adobe Illustrator 24.1.0, SVG Export Plug-In . SVG Version: 6.00 Build 0)  -->
<svg version="1.1" id="Layer_1" xmlns="http://www.w3.org/2000/svg" xmlns:xlink="http://www.w3.org/1999/xlink" x="0px" y="0px"
	 viewBox="0 0 129.1 149.3" style="enable-background:new 0 0 129.1 149.3;" xml:space="preserve">
<style type="text/css">
	.st0{fill:#FFD100;}
</style>
<path d="M98.8,3.8c0.6,0,1.1,0,1.7,0c0.3,0.6,0.5,1.2,0.9,1.8c3.8,7,8,13.8,11.5,20.9c6.3,12.9,9.6,26.6,10,41
	c0.1,4,0.1,7.9,0.2,11.9c0,1.7,0,3.5,0,5.3c-38.3,0-76.5,0-114.7,0c0-0.9,0-1.8,0-2.6c0.1-0.4,0.2-0.8,0.2-1.1
	c0.1-3.1,0.2-6.1,1-9.1c0.5-2,0.9-2.5,3-2.9c13.9-2.6,27.8-5.3,41.7-7.9c1.9-0.4,3.8-0.7,5.9-1.1c-0.2,0.8-0.4,1.3-0.5,1.9
	c-0.9,2.8-1.1,5.7-0.3,8.6c0.7,2.4,1.3,4.9,1.9,7.3c0.1,0.5,0.3,1,0.5,1.9c0.3-0.6,0.4-0.8,0.5-1.1c1.6-3.9,2.4-7.9,2.9-12.1
	c0.3-2.7,0.9-5.5,0.6-8.1c-0.8-7-3-13.6-6.7-19.7c-1.6-2.5-3.8-4.1-6.7-4.8c-2.9-0.7-5.7-1.4-8.9-2.2c1.2-0.7,2-1.4,3-1.8
	c17.1-8.4,34.2-16.9,51.4-25.3C98.1,4.2,98.4,4,98.8,3.8z"/>
<path d="M63.2,144.4c-0.8-0.1-1.6-0.2-2.3-0.2c-12.3-0.8-23.5-4.4-32.9-12.8c-5.9-5.3-10.1-11.8-13.3-19c-0.1-0.2-0.1-0.4-0.2-0.6
	c35.2,0,70.3,0,105.5,0c-1.5,5.5-4.3,10.2-7.7,14.6c-3,3.9-6.6,7.2-10.5,10.2c-0.7,0.6-1.6,1-2.5,1.3c-6.7,2-13.4,4.2-20.4,5.2
	c-3.7,0.6-7.5,0.8-11.3,1.2c-0.3,0-0.7,0.1-1,0.2C65.5,144.4,64.4,144.4,63.2,144.4z"/>
<path class="st0" d="M80,85.3c1.3,0.5,2.7,0.8,4,1.4c1.7,0.9,3.5,1.8,4.9,3.1c1.3,1.3,2.3,3,3.2,4.6c0.3,0.6,0.3,1.6,0.2,2.3
	c-0.4,2.1-0.8,4.1-1.3,6.2c-0.1,0.4-0.3,0.8-0.6,1c-2.1,1.7-4.1,3.4-6.3,5c-1.5,1.1-3.4,1.1-5.2,1.3c-2.7,0.3-4.9-0.7-7.1-1.8
	c-3.8-2-6.1-5.1-6.5-9.6c-0.5-4.8,1.8-8.1,5.3-10.9c1.9-1.6,4.3-1.9,6.6-2.2c0.9-0.1,1.8-0.2,2.7-0.3C79.9,85.4,80,85.3,80,85.3z
	 M77.4,106.3c1.6-0.1,2.7-0.2,3.9-0.3c3.8-0.2,6.9-2.6,8.2-6.2c1-2.9,0.4-5.5-1.9-7.5c-1.2-1.1-2.7-2-4.3-2.6
	c-4.1-1.6-8.1-0.5-11.9,1.4c-3.7,1.9-5,7.2-2.6,10.5C71.1,104.5,74.2,106,77.4,106.3z"/>
<path class="st0" d="M40.7,110.4c0.2-2.1,0.4-4.1,0.6-6.2c0-0.3,0.5-0.9,0.7-0.9c0.4,0,1,0.2,1.2,0.6c1,1.6,2.5,2.3,4.3,2.5
	c2.8,0.3,5.6,0.4,8.5,0.5c1.9,0.1,3.5-0.6,5-1.7c0.7-0.6,0.9-1.2,0.6-2.1c-0.7-2-2.2-3-4.2-3.3c-2.6-0.5-5.3-0.9-7.9-1.3
	c-2.1-0.3-3.9-1.3-5.5-2.7c-0.7-0.6-1.3-1.3-2-1.9c-0.9-0.8-1-1.2-0.2-2.2c2.7-3.6,6.5-5.2,10.8-5.6c1.7-0.2,3.4,0.1,5.1,0.1
	c1,0,2.1-0.2,3.1-0.3c1.2-0.1,1.6,0.1,1.4,1.3c-0.2,1.2-0.5,2.4-0.9,3.6c-0.4,1-1.4,1-2.7,0.3c-1.4-0.7-2.9-1.5-4.4-1.8
	c-2-0.3-4.1-0.2-6.1,0c-0.9,0.1-1.9,0.7-2.6,1.3c-1.7,1.4-1.4,3.5,0.7,4.2c2.2,0.7,4.5,1.1,6.7,1.7c2.6,0.7,5.3,1.4,7.9,2.4
	c2.3,0.8,3,3.1,3.7,5.2c0.1,0.3-0.2,0.8-0.5,1.1c-2.8,2.9-6,5-10.2,4.7c-2.5-0.2-5.1-0.5-7.6-0.6c-0.6,0-1.4,0-1.9,0.3
	C43,110.6,42.7,110.7,40.7,110.4z"/>
<path class="st0" d="M111.1,110.2c0.4-0.8,0.6-1.8,1.2-2.4c1.3-1.4,1.8-3,1.9-4.9c0.1-2.1,0.4-4.1,0.4-6.2c0-1.1-0.3-2.4-0.9-3.4
	c-2.4-3.8-5.8-5.8-10.4-5.6c-1.6,0.1-3.1,0.1-4.7,0.1c-1,0-1.3,0.3-1,1.3c0.6,2.5,1.2,5,1.8,7.4c0.3,1.4,0.4,2.9,0.7,4.4
	c0.3,1.7,1.1,3.1,2.4,4.1c1.1,0.9,1.1,1.5-0.2,2.1c-1.9,0.9-3.7,1.9-5.6,2.7c-0.6,0.3-1.4,0.1-2,0.1c0-0.8-0.3-1.8,0.1-2.2
	c1.8-2.4,1.9-5.1,1.6-7.9c-0.1-0.8-0.1-1.6,0-2.4c0.4-2.7-0.1-5.3-1.2-7.8c-0.2-0.5-0.8-0.9-1.1-1.3c-0.4-0.6-0.6-1.2-0.9-1.8
	c0.6-0.2,1.1-0.6,1.7-0.6c4.7,0.1,9.4,0.2,14.1,0.5c0.7,0,1.5,0.4,2,0.9c2.1,2.1,4.1,4.2,6.1,6.4c0.4,0.4,0.5,1.2,0.6,1.9
	c0,1.2-0.1,2.3-0.1,3.5c-0.2,2.2,0.4,4.2,1.7,6.1c1.1,1.7,0.6,2.4-1.3,2.9c-1.3,0.3-2.4,1.3-3.7,1.9c-0.8,0.4-1.7,0.6-2.5,0.9
	C111.4,110.6,111.2,110.4,111.1,110.2z"/>
<path class="st0" d="M17.6,102.6c-0.2,2.8,0.6,4.4,2.8,4.8c0.9,0.2,2.1,0,2.9-0.4c3.7-2.2,4.9-5.5,3.7-9.6c-0.8-2.7-2-5.1-4.6-6.6
	c-0.9-0.5-0.9-1.1-0.1-1.7c1.7-1.1,3.5-2.2,5.3-3.2c0.4-0.2,1-0.3,1.5-0.3c0.9,0,1.3,0.5,0.9,1.3c-1.1,2.1-1,4.4-0.7,6.7
	c0.3,2.5,0.6,5.1,0.8,7.6c0.1,1.5-0.4,2.8-1.4,3.8c-1.3,1.3-2.6,2.6-3.9,3.9c-1.8,1.6-3.7,1.9-5.8,0.6c-2.2-1.3-4-3.1-5-5.5
	c-0.7-1.8,0.5-3.9,2.4-4.1c0.3,0,0.9,0.4,1,0.7C17.6,101.2,17.5,102,17.6,102.6z"/>
<path class="st0" d="M35.1,106c-1.1,0-2.2,0-3.2,0c-1.2,0-1.2-0.9-1.2-1.7c0-1,0.7-1.4,1.5-1.4c1.8,0,3.6-0.2,5.4-0.3
	c0.9,0,1.7,0.1,2,1.1c0.4,1.2,0,1.9-1.2,2C37.3,105.8,36.2,105.9,35.1,106C35.1,105.9,35.1,106,35.1,106z"/>
</svg>
