<?xml version="1.0" standalone="no"?>
<!DOCTYPE svg PUBLIC "-//W3C//DTD SVG 20010904//EN"
 "http://www.w3.org/TR/2001/REC-SVG-20010904/DTD/svg10.dtd">
<svg version="1.0" xmlns="http://www.w3.org/2000/svg"
 width="596.000000pt" height="596.000000pt" viewBox="0 0 596.000000 596.000000"
 preserveAspectRatio="xMidYMid meet">
<metadata>
Created by potrace 1.11, written by Peter Selinger 2001-2013
</metadata>
<g transform="translate(0.000000,596.000000) scale(0.100000,-0.100000)"
fill="#000000" stroke="none">
<path d="M4328 5778 c-10 -10 -25 -18 -33 -18 -8 0 -15 -4 -15 -10 0 -5 -5
-10 -10 -10 -6 0 -124 -56 -264 -124 -139 -69 -374 -184 -522 -256 -505 -248
-619 -305 -625 -313 -3 -5 -9 -8 -13 -7 -6 1 -361 -171 -551 -266 -77 -39
-135 -76 -135 -85 0 -6 207 -61 280 -75 14 -2 32 -7 40 -10 8 -3 25 -8 38 -10
83 -16 184 -91 246 -183 31 -45 106 -193 136 -266 4 -11 15 -36 23 -55 24 -55
75 -243 93 -344 18 -100 24 -236 13 -306 -4 -25 -10 -72 -14 -105 -21 -188
-92 -493 -117 -503 -4 -2 -8 -12 -8 -22 0 -21 -20 -38 -21 -18 -1 15 2 5 -40
163 -17 66 -32 127 -34 135 -2 8 -4 15 -5 15 -2 0 -11 35 -14 55 -1 9 -5 20
-8 25 -13 23 -4 192 14 260 32 118 32 116 6 110 -13 -3 -37 -7 -53 -8 -17 -2
-35 -6 -41 -9 -5 -4 -28 -9 -49 -11 -22 -3 -76 -12 -120 -21 -86 -17 -125 -24
-165 -31 -14 -2 -36 -7 -50 -10 -69 -14 -156 -30 -217 -40 -12 -2 -34 -6 -50
-9 -52 -12 -78 -17 -103 -21 -14 -2 -50 -9 -80 -15 -30 -6 -66 -13 -80 -15
-14 -2 -59 -10 -100 -19 -41 -9 -86 -18 -100 -20 -14 -3 -27 -5 -30 -6 -3 -2
-9 -2 -13 -1 -5 1 -25 -3 -45 -8 -20 -5 -50 -12 -67 -15 -16 -2 -91 -16 -165
-31 -74 -14 -151 -28 -170 -31 -19 -3 -55 -10 -80 -16 -25 -6 -63 -12 -85 -15
-133 -16 -154 -84 -179 -570 -1 -31 2 -54 8 -56 6 -2 1035 -3 2286 -3 l2275 1
3 35 c5 79 -4 680 -13 815 -5 85 -16 196 -21 225 -2 14 -7 43 -10 65 -3 22 -8
51 -10 65 -2 14 -7 41 -10 60 -32 205 -148 631 -194 712 -6 10 -10 22 -10 28
0 5 -10 33 -23 62 -13 29 -32 73 -42 98 -31 73 -166 343 -187 373 -11 15 -17
27 -14 27 4 0 -5 17 -18 38 -22 34 -156 270 -229 402 -16 30 -33 60 -37 65 -4
6 -24 42 -44 81 -34 68 -37 71 -72 71 -23 0 -45 -8 -56 -19z"/>
<path d="M3525 2538 c-27 -4 -68 -9 -90 -12 -102 -13 -152 -34 -230 -100 -67
-56 -72 -62 -117 -126 -53 -74 -75 -152 -72 -251 3 -92 5 -103 29 -169 51
-144 192 -259 380 -310 63 -17 78 -17 190 -6 106 12 115 16 290 155 133 106
130 102 159 238 37 176 36 205 -8 280 -80 136 -204 231 -376 287 -81 26 -80
26 -155 14z m140 -142 c32 -7 139 -48 145 -56 3 -3 21 -16 40 -28 55 -35 85
-65 116 -117 72 -123 11 -312 -131 -407 -53 -36 -110 -55 -187 -63 -134 -14
-186 -12 -253 9 -5 2 -14 5 -20 6 -45 10 -140 74 -193 130 -48 51 -63 85 -76
174 -9 60 34 172 85 224 37 38 176 107 239 119 14 2 43 8 65 12 39 8 131 6
170 -3z"/>
<path d="M1473 2503 c-31 -18 -57 -33 -59 -33 -12 0 -134 -86 -138 -97 -3 -7
11 -25 32 -40 50 -38 105 -96 123 -130 7 -15 18 -31 24 -35 5 -4 7 -8 3 -8 -4
0 1 -20 12 -45 11 -25 21 -56 23 -70 1 -13 5 -27 8 -29 12 -13 -2 -136 -20
-179 -22 -52 -96 -127 -148 -152 -46 -22 -116 -21 -156 2 -45 26 -64 73 -66
162 -2 88 -19 124 -55 117 -62 -11 -103 -71 -91 -134 23 -125 212 -290 317
-277 22 3 53 12 68 20 48 25 238 223 251 262 12 38 5 193 -16 318 -15 96 -15
212 0 265 30 100 30 109 4 114 -41 8 -59 4 -116 -31z"/>
<path d="M2558 2525 c-2 -1 -32 -6 -68 -9 -145 -15 -260 -67 -354 -159 -100
-98 -100 -96 -19 -176 99 -100 175 -143 273 -157 19 -3 60 -9 90 -14 30 -5 71
-12 90 -15 19 -3 60 -10 90 -16 30 -6 62 -11 70 -11 24 1 93 -51 118 -88 16
-23 22 -46 20 -70 -3 -29 -11 -40 -51 -67 -73 -49 -112 -56 -271 -49 -283 12
-322 21 -388 88 -66 68 -97 63 -103 -17 -2 -16 -6 -57 -10 -90 -14 -124 -14
-125 9 -127 50 -4 78 2 106 22 25 18 43 21 112 20 46 0 99 -3 118 -5 19 -2 83
-7 141 -11 94 -6 114 -4 180 16 41 13 76 26 79 30 3 4 19 14 35 23 17 8 58 41
93 72 69 64 75 82 42 150 -11 22 -19 43 -20 48 -1 32 -123 117 -168 117 -10 0
-22 4 -27 9 -11 9 -53 21 -280 77 -197 49 -237 63 -263 93 -43 48 -12 120 73
164 35 18 58 21 170 21 139 1 143 0 287 -66 86 -39 113 -34 129 25 16 56 16
56 24 102 4 22 9 43 11 47 10 15 -36 27 -82 21 -72 -8 -184 -9 -221 -2 -18 4
-33 5 -35 4z"/>
<path d="M4160 2516 c-14 -5 -26 -11 -28 -12 -7 -4 20 -56 46 -85 16 -19 40
-65 53 -104 22 -65 24 -87 25 -289 1 -231 -6 -283 -47 -339 -11 -16 -21 -47
-23 -72 l-2 -45 39 0 c51 0 294 116 303 144 5 14 -2 27 -23 46 -72 64 -97 126
-118 285 -5 41 -11 70 -20 103 -2 9 -13 53 -24 97 -10 44 -25 104 -32 133 -8
34 -9 56 -3 62 15 15 321 16 372 1 109 -31 219 -120 274 -222 21 -40 23 -56
22 -169 -1 -215 -16 -302 -63 -367 -16 -22 -39 -60 -50 -84 -20 -40 -20 -45
-5 -56 22 -16 98 12 209 76 17 9 49 23 72 29 68 20 68 52 5 157 -30 49 -43
123 -39 235 4 128 -2 154 -49 205 -120 132 -231 239 -260 251 -23 9 -84 15
-194 16 -88 2 -160 5 -160 8 0 10 -256 6 -280 -4z"/>
<path d="M1728 1850 c-37 -3 -73 -10 -79 -17 -18 -18 -15 -84 3 -97 28 -20
289 -8 326 15 25 16 20 67 -10 92 -22 18 -68 20 -240 7z"/>
<path d="M994 1488 c-3 -4 0 -15 5 -25 5 -10 25 -50 44 -88 62 -128 167 -305
220 -371 252 -315 470 -485 807 -632 25 -11 63 -25 85 -32 22 -7 49 -16 60
-21 44 -18 196 -57 290 -74 215 -40 497 -58 650 -42 39 4 95 10 125 13 175 16
224 21 260 28 14 3 41 7 60 10 67 11 194 36 254 52 34 9 72 18 85 20 13 3 31
9 40 13 9 5 30 11 46 14 54 9 368 108 404 127 99 51 340 279 461 435 30 39 57
72 60 75 16 14 133 215 163 280 43 93 77 185 77 208 0 16 -124 17 -2096 17
-1153 0 -2098 -3 -2100 -7z"/>
</g>
</svg>
